# generated from PmQm by Jehee Lee
:FULLY-SPECIFIED
:DEGREES
392
root 91.4299334 37.9889 42.24196987 105.0583294 -82.40480274 -105.0004913
RightUpLeg -27.33571499 3.587771956 7.922250933
RightLeg 24.58444662 0 0
RightFoot 0.2643591328 4.910772669 -3.490573516
RightToes 2.32829e-010 -1.59028e-015 9.93923e-017
Spine -7.82617 -4.18321 4.85693
Spine1 13.5892 -5.81217 5.89013
HEad -11.1141 2.29806 0.547046
LeftShoulder1 9.93923e-017 0 1.22299e-017
LeftArm 2.37092 30.3708 -83.2703
LeftForeArm -21.1373 -14.5294 -2.58577
LeftHand 0.879318 6.09409 -2.61043
RightShoulder 1.98785e-016 -4.96962e-017 1.55301e-017
RightArm 3.13328 -53.2422 81.7141
RightForeArm -23.927 14.2745 0.861444
RightHand 1.12761 -10.7757 -3.38363
LeftUpLeg 5.213196416 -6.350817928 19.57183451
LeftLeg 42.38922167 1.692053972 4.880123614
LeftFoot 25.41926321 3.894785455 -22.11676414
LeftToes 8.82235e-011 9.04645e-011 1.87288e-011
393
root 89.94445092 38.2368 42.06479335 106.4990581 -82.20008817 -106.7993279
RightUpLeg -24.7023844 4.031141491 8.310830141
RightLeg 25.36468362 0 0
RightFoot -2.35713002 4.825914925 -4.078313237
RightToes 2.32829e-010 -1.59028e-015 9.93923e-017
Spine -7.471 -3.38381 6.01816
Spine1 13.8059 -4.71277 5.16031
HEad -10.7382 0.819757 1.88153
LeftShoulder1 9.93923e-017 0 1.22299e-017
LeftArm -1.51826 33.0471 -83.3931
LeftForeArm -15.0812 -9.44565 -6.17775
LeftHand 0.93976 6.5249 -4.42647
RightShoulder 1.98785e-016 -4.96962e-017 1.55301e-017
RightArm 4.08717 -48.0352 83.6402
RightForeArm -24.1846 14.0368 1.48387
RightHand 1.15347 -10.7282 -4.27077
LeftUpLeg -0.6866833708 -6.732079224 18.53712392
LeftLeg 49.93792949 2.218799218 9.8714789
LeftFoot 25.24847026 3.084448817 -18.39765431
LeftToes 8.82235e-011 9.04645e-011 1.87288e-011
394
root 88.39387813 38.6402 41.85290054 111.1149479 -82.74693878 -111.6746381
RightUpLeg -21.28693004 4.460212017 8.009498715
RightLeg 24.34980892 0 0
RightFoot -4.108789844 4.900245978 -4.052670207
RightToes 2.32829e-010 -1.59028e-015 9.93923e-017
Spine -7.67037 -2.51773 6.47335
Spine1 13.688 -3.46845 3.80072
HEad -9.14405 -0.707546 2.91489
LeftShoulder1 9.93923e-017 0 1.22299e-017
LeftArm 1.10318 36.3486 -82.924
LeftForeArm -14.1159 -7.68597 -7.38561
LeftHand 1.00284 7.13454 -6.18465
RightShoulder 1.98785e-016 -4.96962e-017 1.55301e-017
RightArm 7.34038 -43.5911 85.2189
RightForeArm -27.2352 15.2275 0.003924370001
RightHand 1.18297 -10.6363 -5.35387
LeftUpLeg -6.337666524 -7.209769036 16.1168387
LeftLeg 54.38022386 1.320050312 12.58413946
LeftFoot 21.306399 1.530249933 -14.94367665
LeftToes 8.82235e-011 9.04645e-011 1.87288e-011
395
root 86.85924353 38.9605 41.6075489 120.6396851 -83.20813264 -121.4620167
RightUpLeg -17.89964855 4.210991683 7.586353927
RightLeg 23.35480679 0 0
RightFoot -6.128017195 5.894182141 -3.697211623
RightToes 2.32829e-010 -1.59028e-015 9.93923e-017
Spine -7.83645 -1.43061 7.21708
Spine1 13.4939 -1.89804 1.99475
HEad -7.51557 -2.16027 3.22743
LeftShoulder1 9.93923e-017 0 1.22299e-017
LeftArm 3.31971 40.2464 -81.5602
LeftForeArm -12.7848 -8.16886 -7.155
LeftHand 1.03904 7.59664 -7.14162
RightShoulder 1.98785e-016 -4.96962e-017 1.55301e-017
RightArm 13.4859 -40.2862 86.3907
RightForeArm -35.0111 17.704 -4.95831
RightHand 1.18406 -10.5387 -5.75478
LeftUpLeg -11.4493388 -7.519467384 13.39353055
LeftLeg 55.98829632 -0.4639572049 12.2074928
LeftFoot 17.39642929 0.8777955776 -13.65863188
LeftToes 8.82235e-011 9.04645e-011 1.87288e-011
396
root 85.37039189 39.1443 41.35406427 133.4458374 -83.08168124 -134.5530241
RightUpLeg -14.84356341 3.890322262 7.124422273
RightLeg 22.91920739 0 0
RightFoot -8.194203181 7.496366556 -3.728971971
RightToes 2.32829e-010 -1.59028e-015 9.93923e-017
Spine -7.68166 -0.17435 8.22232
Spine1 13.3304 -0.160738 0.328532
HEad -6.7365 -3.35321 3.01867
LeftShoulder1 9.93923e-017 0 1.22299e-017
LeftArm 5.60205 44.353 -79.4347
LeftForeArm -13.5077 -8.53464 -6.98397
LeftHand 1.03691 7.58639 -7.36546
RightShoulder 1.98785e-016 -4.96962e-017 1.55301e-017
RightArm 23.2456 -37.7105 87.0416
RightForeArm -47.9143 19.9529 -13.667
RightHand 1.16294 -10.4491 -5.53183
LeftUpLeg -15.92567698 -7.254629849 10.97181176
LeftLeg 55.20226008 -2.527996149 9.82469955
LeftFoot 14.11031772 0.7074874722 -13.36837112
LeftToes 8.82235e-011 9.04645e-011 1.87288e-011
397
root 83.89598287 39.2712 41.1068028 146.0133449 -82.24711577 -147.2741766
RightUpLeg -12.03829204 3.712239007 6.650613533
RightLeg 22.52547753 0 0
RightFoot -9.968831679 9.473279422 -4.501590681
RightToes 2.32829e-010 -1.59028e-015 9.93923e-017
Spine -7.50668 1.16492 9.12466
Spine1 13.1693 1.53409 -1.02202
HEad -6.76522 -4.21988 2.61991
LeftShoulder1 9.93923e-017 0 1.22299e-017
LeftArm 7.35789 48.1467 -76.6541
LeftForeArm -14.7028 -10.3329 -5.82241
LeftHand 1.0147 7.29527 -7.40219
RightShoulder 1.98785e-016 -4.96962e-017 1.55301e-017
RightArm 27.874 -35.0547 86.6223
RightForeArm -54.4254 21.509 -20.8458
RightHand 1.13653 -10.2799 -5.47069
LeftUpLeg -19.7795022 -6.020939997 8.962516856
LeftLeg 52.01875373 -4.281805515 7.117996006
LeftFoot 9.96293275 0.2768160503 -12.50053112
LeftToes 8.82235e-011 9.04645e-011 1.87288e-011
398
root 82.43743738 39.3511 40.85282454 154.8457987 -80.86337654 -156.1228517
RightUpLeg -9.339900468 3.444396974 6.359574575
RightLeg 21.94244969 0 0
RightFoot -11.83530794 11.50827287 -5.509338435
RightToes 2.32829e-010 -1.59028e-015 9.93923e-017
Spine -7.5167 2.4629 10.0566
Spine1 13.1436 3.04149 -2.25914
HEad -7.17577 -4.74753 2.14411
LeftShoulder1 9.93923e-017 0 1.22299e-017
LeftArm 9.71386 51.2335 -73.7732
LeftForeArm -17.2206 -12.4679 -4.32667
LeftHand 1.00603 7.18139 -7.52092
RightShoulder 1.98785e-016 -4.96962e-017 1.55301e-017
RightArm 23.4667 -31.7158 85.2526
RightForeArm -49.3998 24.6436 -22.8614
RightHand 1.11765 -10.0563 -5.86373
LeftUpLeg -22.84912066 -3.874640336 7.411687455
LeftLeg 46.1411481 -5.44973189 4.932341298
LeftFoot 5.960580685 -0.02559725024 -11.74412508
LeftToes 8.82235e-011 9.04645e-011 1.87288e-011
399
root 81.00809708 39.3275 40.57038323 158.5684385 -79.40004764 -159.9766032
RightUpLeg -6.522655333 3.002319035 6.425881011
RightLeg 21.42792024 0 0
RightFoot -14.0044167 13.14369248 -6.133076901
RightToes 2.32829e-010 -1.59028e-015 9.93923e-017
Spine -7.50674 3.43618 11.2677
Spine1 13.3803 4.13737 -3.40054
HEad -7.70232 -4.95186 1.66868
LeftShoulder1 9.93923e-017 0 1.22299e-017
LeftArm 9.94681 53.4464 -71.1492
LeftForeArm -17.9221 -13.2168 -3.49391
LeftHand 1.0069 7.19274 -7.40753
RightShoulder 1.98785e-016 -4.96962e-017 1.55301e-017
RightArm 21.8119 -28.0745 84.0461
RightForeArm -46.3925 27.0863 -24.6167
RightHand 1.13036 -10.0345 -6.34538
LeftUpLeg -24.71696334 -1.656866164 6.332410977
LeftLeg 37.58399338 -6.139772106 3.261000828
LeftFoot 4.641841178 0.2516357715 -11.56477771
LeftToes 8.82235e-011 9.04645e-011 1.87288e-011
400
root 79.59453464 39.2265 40.26771264 158.8380558 -78.44501067 -160.5317256
RightUpLeg -3.450466151 2.51338684 6.675830853
RightLeg 20.84641407 0 0
RightFoot -15.96312444 14.2487334 -6.356748668
RightToes 2.32829e-010 -1.59028e-015 9.93923e-017
Spine -7.51407 3.94656 12.4929
Spine1 13.8214 4.73415 -4.4139
HEad -8.20261 -4.98025 1.35199
LeftShoulder1 9.93923e-017 0 1.22299e-017
LeftArm 7.05531 54.8469 -68.866
LeftForeArm -15.3483 -12.2028 -3.69852
LeftHand 0.989239 6.97426 -6.78467
RightShoulder 1.98785e-016 -4.96962e-017 1.55301e-017
RightArm 20.9799 -24.6445 83.1853
RightForeArm -44.7933 28.7058 -25.8324
RightHand 1.16563 -10.225 -6.54391
LeftUpLeg -25.22388487 -0.5716232762 5.519720229
LeftLeg 26.83413881 -6.418205136 1.948308061
LeftFoot 5.855950251 0.7563061299 -10.7386703
LeftToes 8.82235e-011 9.04645e-011 1.87288e-011
401
root 78.18502722 39.1368 39.96354944 158.9426247 -77.94928885 -160.6292424
RightUpLeg -0.5072233168 2.203476511 6.828883468
RightLeg 19.82208535 0 0
RightFoot -17.37185906 15.04201116 -6.565530526
RightToes 2.32829e-010 -1.59028e-015 9.93923e-017
Spine -8.09685 4.28993 13.4388
Spine1 14.4793 5.16981 -5.55563
HEad -8.53831 -5.02505 1.2513
LeftShoulder1 9.93923e-017 0 1.22299e-017
LeftArm 3.03309 55.6042 -66.8765
LeftForeArm -11.7008 -10.2295 -4.35487
LeftHand 0.964956 6.70599 -5.97777
RightShoulder 1.98785e-016 -4.96962e-017 1.55301e-017
RightArm 20.1872 -21.9817 82.6238
RightForeArm -44.228 29.6533 -26.5435
RightHand 1.17304 -10.2993 -6.4314
LeftUpLeg -24.9181075 -0.6950537131 4.661038181
LeftLeg 14.70553544 -6.245733876 1.066555558
LeftFoot 7.401570192 1.090074114 -9.117993012
LeftToes 8.82235e-011 9.04645e-011 1.87288e-011
